Coordinates
version=1
nRows=41
nColumns=38
inDegrees=no

Units are S.I. units (second, meters, Newtons, ...)
If the header above contains a line with 'inDegrees', this indicates whether rotational values are in degrees (yes) or radians (no).

endheader
time	pelvis_tilt	pelvis_list	pelvis_rotation	pelvis_tx	pelvis_ty	pelvis_tz	hip_flexion_r	hip_adduction_r	hip_rotation_r	knee_angle_r	ankle_angle_r	subtalar_angle_r	mtp_angle_r	hip_flexion_l	hip_adduction_l	hip_rotation_l	knee_angle_l	ankle_angle_l	subtalar_angle_l	mtp_angle_l	lumbar_extension	lumbar_bending	lumbar_rotation	arm_flex_r	arm_add_r	arm_rot_r	elbow_flex_r	pro_sup_r	wrist_flex_r	wrist_dev_r	arm_flex_l	arm_add_l	arm_rot_l	elbow_flex_l	pro_sup_l	wrist_flex_l	wrist_dev_l
0	2.26414	1.51785	2.51883	0.689138	1.8372	0.959064	-0.0464466	-0.0616655	-0.119737	0.0384028	0.0257161	0	0	-0.0477914	0.042366	-0.215897	0.0707485	0.0781566	0	0	0.0392647	-0.0419959	0.00808552	-0.156288	-0.143201	-0.221774	0.451783	1.5708	0	0	-0.12297	-0.161067	-0.091209	0.495516	1.34912	0	0
0.01	2.25898	1.52272	2.52146	0.68918	1.83622	0.959015	-0.054801	-0.0568403	-0.117061	0.0302081	0.0227657	0	0	-0.0553681	0.040761	-0.213329	0.0639841	0.0742821	0	0	0.0385124	-0.0366723	0.0110408	-0.154659	-0.144016	-0.218897	0.448289	1.5708	0	0	-0.124499	-0.158538	-0.0908908	0.491379	1.35073	0	0
0.02	2.24252	1.52661	2.53533	0.689226	1.83535	0.959018	-0.0623321	-0.0533986	-0.115032	0.0229781	0.0202442	0	0	-0.0623024	0.0396023	-0.213869	0.0583213	0.0716964	0	0	0.0376123	-0.0326037	0.0136441	-0.152078	-0.144308	-0.218202	0.444408	1.5708	0	0	-0.125461	-0.156186	-0.0920429	0.485913	1.35335	0	0
0.03	2.21546	1.52974	2.55947	0.689233	1.8345	0.959054	-0.0690677	-0.0510506	-0.113299	0.0167956	0.0181602	0	0	-0.0691102	0.0388733	-0.215448	0.0528441	0.0696989	0	0	0.0367715	-0.02954	0.0163643	-0.149224	-0.144142	-0.217845	0.440562	1.5708	0	0	-0.126007	-0.154075	-0.0940792	0.479203	1.35721	0	0
0.04	2.17538	1.53227	2.59665	0.689247	1.83364	0.959119	-0.0754325	-0.0495797	-0.111766	0.0113733	0.0164125	0	0	-0.0763008	0.0386313	-0.216319	0.0468112	0.0675222	0	0	0.0359888	-0.0273669	0.0189159	-0.146313	-0.143664	-0.218057	0.436551	1.5708	0	0	-0.126399	-0.152067	-0.09683	0.472014	1.36285	0	0
0.05	2.13238	1.53421	2.63627	0.689221	1.83276	0.959176	-0.0806413	-0.0487176	-0.110029	0.0073754	0.0152889	0	0	-0.0837059	0.0387579	-0.216392	0.039883	0.0650033	0	0	0.0356792	-0.0256817	0.0216395	-0.14364	-0.143197	-0.216801	0.433123	1.5708	0	0	-0.126704	-0.15009	-0.0996318	0.46416	1.36776	0	0
0.06	2.08585	1.53581	2.67872	0.689096	1.83185	0.959224	-0.0846617	-0.0482465	-0.108354	0.00525663	0.0151948	0	0	-0.0916955	0.0391424	-0.215505	0.0318516	0.0622393	0	0	0.0356952	-0.0243154	0.0247553	-0.141569	-0.142537	-0.215403	0.431119	1.5708	0	0	-0.127297	-0.148642	-0.101751	0.456359	1.37116	0	0
0.07	2.05342	1.53674	2.70736	0.688963	1.83099	0.959218	-0.0869221	-0.048195	-0.106706	0.00475724	0.0158599	0	0	-0.098699	0.0397518	-0.214897	0.0239193	0.0597205	0	0	0.0365591	-0.0234184	0.0273136	-0.139654	-0.14162	-0.213729	0.429491	1.5708	0	0	-0.127972	-0.147772	-0.103203	0.44842	1.37455	0	0
0.08	2.0266	1.53724	2.73091	0.688856	1.83017	0.95917	-0.0881143	-0.0485253	-0.104943	0.00560762	0.0171596	0	0	-0.105178	0.0406615	-0.214471	0.0160361	0.0572219	0	0	0.0377616	-0.0228997	0.0291546	-0.137983	-0.140551	-0.21136	0.428515	1.5708	0	0	-0.128572	-0.147354	-0.104215	0.440112	1.37839	0	0
0.09	1.99554	1.53777	2.7594	0.688761	1.82938	0.959095	-0.089078	-0.0488455	-0.103062	0.00730239	0.0188733	0	0	-0.111066	0.0415242	-0.214158	0.00935117	0.0552503	0	0	0.0387145	-0.0226222	0.0302902	-0.136639	-0.139347	-0.20872	0.42826	1.5708	0	0	-0.128905	-0.147211	-0.105506	0.432116	1.38243	0	0
0.1	1.96319	1.53818	2.79022	0.688747	1.82857	0.958999	-0.0901659	-0.0491631	-0.101346	0.00910352	0.020633	0	0	-0.116159	0.0424343	-0.213033	0.00401252	0.0537657	0	0	0.0396667	-0.0225371	0.0302596	-0.135486	-0.138043	-0.206724	0.428611	1.5708	0	0	-0.129166	-0.147009	-0.107508	0.424092	1.38604	0	0
0.11	1.92899	1.53854	2.82392	0.688807	1.82775	0.958895	-0.0915541	-0.0493543	-0.0999419	0.010739	0.0222618	0	0	-0.120305	0.0432049	-0.21118	0.00033702	0.0527993	0	0	0.0404968	-0.0225919	0.0291315	-0.134423	-0.136624	-0.205693	0.429458	1.5708	0	0	-0.129247	-0.146743	-0.110256	0.415805	1.38894	0	0
0.12	1.8941	1.53909	2.85905	0.688912	1.82697	0.95881	-0.093236	-0.0492326	-0.0991225	0.0120115	0.0235859	0	0	-0.123286	0.0434834	-0.209106	0	0.0526066	0	0	0.0409941	-0.0225619	0.027145	-0.133407	-0.135188	-0.20463	0.430889	1.5708	0	0	-0.128888	-0.146684	-0.11262	0.406894	1.39136	0	0
0.13	1.86606	1.53972	2.88762	0.689008	1.82631	0.958746	-0.094829	-0.048828	-0.0983702	0.0128182	0.0245053	0	0	-0.124853	0.0433325	-0.207044	0	0.0529939	0	0	0.041311	-0.0224215	0.0249354	-0.132863	-0.134144	-0.200147	0.43337	1.5708	0	0	-0.127875	-0.146807	-0.115115	0.397378	1.3942	0	0
0.14	1.83389	1.54031	2.92042	0.689078	1.82564	0.958721	-0.0971473	-0.048368	-0.0980423	0.0125394	0.0249638	0	0	-0.126097	0.0430915	-0.204617	0.000332301	0.0536382	0	0	0.0414192	-0.0224144	0.0229366	-0.132795	-0.132982	-0.195541	0.43608	1.5708	0	0	-0.127087	-0.147153	-0.116535	0.389293	1.39486	0	0
0.15	1.81358	1.54044	2.9414	0.689189	1.82491	0.958694	-0.0996118	-0.0483347	-0.0980002	0.0112214	0.0251915	0	0	-0.126457	0.0430987	-0.203485	0.00239491	0.0547536	0	0	0.0421407	-0.0227079	0.0213188	-0.133441	-0.131876	-0.191613	0.439286	1.5708	0	0	-0.126032	-0.147322	-0.117671	0.380802	1.39293	0	0
0.16	1.8221	1.54029	2.93395	0.689368	1.82416	0.95863	-0.101679	-0.0484369	-0.0984425	0.00889242	0.0249221	0	0	-0.125434	0.0430664	-0.203688	0.00518623	0.0562321	0	0	0.0440199	-0.0230601	0.0196771	-0.134363	-0.13072	-0.189781	0.442164	1.5708	0	0	-0.125328	-0.147681	-0.116559	0.373178	1.38525	0	0
0.17	1.8311	1.54042	2.92713	0.689584	1.82357	0.958616	-0.103957	-0.0480937	-0.100031	0.00611052	0.0240536	0	0	-0.124036	0.0424272	-0.20258	0.00842382	0.0579288	0	0	0.0449998	-0.0232751	0.0165833	-0.134426	-0.129685	-0.187365	0.444791	1.5708	0	0	-0.121714	-0.145817	-0.136559	0.360295	1.42082	0	0
0.18	1.85753	1.5404	2.9012	0.689658	1.82292	0.958543	-0.105212	-0.047937	-0.100114	0.00373324	0.0232896	0	0	-0.122837	0.0420158	-0.2029	0.0104385	0.0592545	0	0	0.0466949	-0.0232882	0.0160613	-0.135859	-0.128877	-0.184102	0.448609	1.5708	0	0	-0.1204	-0.145759	-0.14055	0.353476	1.42124	0	0
0.19	1.8864	1.53994	2.87276	0.689837	1.8224	0.95847	-0.105631	-0.0484805	-0.10049	0.00230107	0.0229428	0	0	-0.121141	0.0421044	-0.204345	0.0127241	0.0605747	0	0	0.0481897	-0.0235606	0.0165897	-0.13734	-0.128067	-0.181722	0.45171	1.5708	0	0	-0.119821	-0.146519	-0.134602	0.350769	1.40478	0	0
0.2	1.93757	1.53895	2.82267	0.69012	1.82214	0.958374	-0.1043	-0.0494295	-0.101343	0.00204527	0.022899	0	0	-0.117523	0.0423624	-0.206394	0.0162189	0.0621204	0	0	0.0497774	-0.0239815	0.0163123	-0.138013	-0.127668	-0.178394	0.454519	1.5708	0	0	-0.117642	-0.146247	-0.138158	0.345784	1.40783	0	0
0.21	2.00005	1.53731	2.76293	0.690578	1.8221	0.958273	-0.102101	-0.0507216	-0.103607	0.00208167	0.0228357	0	0	-0.111921	0.0427225	-0.209066	0.0215022	0.0643524	0	0	0.0513878	-0.0247528	0.0143522	-0.137823	-0.127269	-0.176181	0.456806	1.5708	0	0	-0.115489	-0.146213	-0.140739	0.341994	1.40949	0	0
0.22	2.05332	1.53628	2.71053	0.690878	1.82181	0.958171	-0.100856	-0.0512711	-0.104169	0.00109884	0.0222536	0	0	-0.108363	0.0427628	-0.211242	0.0246088	0.0661523	0	0	0.0531167	-0.0245497	0.0138295	-0.13899	-0.128392	-0.167555	0.461405	1.5708	0	0	-0.114368	-0.145388	-0.147784	0.339134	1.41422	0	0
0.23	2.07227	1.53649	2.69042	0.691005	1.82125	0.958139	-0.101821	-0.051025	-0.103441	0	0.0215306	0	0	-0.109107	0.0427394	-0.210644	0.0234934	0.0659394	0	0	0.0535794	-0.0234241	0.016081	-0.140219	-0.128975	-0.16236	0.464348	1.5708	0	0	-0.114839	-0.14538	-0.148239	0.34011	1.41219	0	0
0.24	2.08826	1.53728	2.67234	0.691051	1.82053	0.958095	-0.103256	-0.050262	-0.102696	0	0.0210177	0	0	-0.111247	0.0424765	-0.208185	0.0210999	0.065466	0	0	0.0539712	-0.0217188	0.0194886	-0.140946	-0.129176	-0.162064	0.464974	1.5708	0	0	-0.115398	-0.145111	-0.150264	0.340991	1.41435	0	0
0.25	2.11408	1.53726	2.64543	0.691219	1.81999	0.958036	-0.103862	-0.0501634	-0.102453	0	0.0204245	0	0	-0.111803	0.0426001	-0.207577	0.0198011	0.065226	0	0	0.0545402	-0.0207072	0.0217222	-0.141118	-0.12962	-0.160585	0.465072	1.5708	0	0	-0.116157	-0.144923	-0.151933	0.343125	1.41455	0	0
0.26	2.15586	1.53657	2.60327	0.691485	1.81958	0.957944	-0.103345	-0.0504438	-0.102671	0	0.019941	0	0	-0.110552	0.0428982	-0.208051	0.0198498	0.0656311	0	0	0.0556519	-0.0200873	0.0231395	-0.140472	-0.129878	-0.160271	0.463585	1.5708	0	0	-0.116992	-0.144783	-0.153471	0.345894	1.41419	0	0
0.27	2.2078	1.53536	2.55078	0.69187	1.81921	0.957804	-0.101892	-0.0511472	-0.102576	0	0.0196084	0	0	-0.108436	0.043533	-0.208985	0.0202648	0.0664075	0	0	0.0574147	-0.019459	0.0248299	-0.139409	-0.130167	-0.160829	0.460587	1.5708	0	0	-0.11927	-0.145123	-0.14838	0.351921	1.3998	0	0
0.28	2.27281	1.5339	2.48523	0.692254	1.81892	0.957625	-0.0993699	-0.0516169	-0.102221	0	0.0193291	0	0	-0.105065	0.0437079	-0.210484	0.0217469	0.0677473	0	0	0.0595824	-0.0186158	0.026625	-0.138338	-0.130472	-0.159579	0.457989	1.5708	0	0	-0.120462	-0.144995	-0.14835	0.355731	1.39788	0	0
0.29	2.34243	1.53179	2.41622	0.692795	1.8187	0.957398	-0.0962746	-0.0522945	-0.102951	0	0.0191273	0	0	-0.100044	0.0438394	-0.212774	0.0247499	0.0696561	0	0	0.0622729	-0.0180096	0.0272623	-0.136687	-0.130694	-0.161244	0.454214	1.5708	0	0	-0.121838	-0.144818	-0.148318	0.360003	1.39664	0	0
0.3	2.4029	1.52955	2.35695	0.693447	1.81849	0.957178	-0.0935852	-0.0530401	-0.104373	0	0.0188436	0	0	-0.0950876	0.0440406	-0.214373	0.0276627	0.0713288	0	0	0.0647481	-0.0174126	0.0271523	-0.134867	-0.131161	-0.162929	0.450377	1.5708	0	0	-0.12235	-0.144058	-0.152299	0.362195	1.40446	0	0
0.31	2.43829	1.52881	2.32136	0.693995	1.818	0.95705	-0.0934772	-0.0531598	-0.105016	0	0.0183933	0	0	-0.0941779	0.0441024	-0.212548	0.0274697	0.0718495	0	0	0.0657056	-0.0161262	0.0286114	-0.133649	-0.1317	-0.163139	0.447348	1.5708	0	0	-0.123558	-0.143719	-0.152199	0.365332	1.404	0	0
0.32	2.47277	1.528	2.28665	0.694582	1.81753	0.956924	-0.0934318	-0.0533004	-0.105588	0	0.017973	0	0	-0.0931042	0.0441664	-0.210998	0.0275873	0.0726026	0	0	0.0665587	-0.014887	0.0301511	-0.132195	-0.132057	-0.165253	0.443526	1.5708	0	0	-0.124831	-0.14332	-0.152276	0.368683	1.4032	0	0
0.33	2.51767	1.52607	2.24212	0.695274	1.8171	0.956722	-0.0919228	-0.0538278	-0.106691	0	0.0177843	0	0	-0.0897845	0.0443155	-0.21106	0.0294164	0.0743587	0	0	0.0687596	-0.0140821	0.0312862	-0.130188	-0.131771	-0.172086	0.437395	1.5708	0	0	-0.12743	-0.143493	-0.146549	0.375033	1.38753	0	0
0.34	2.55664	1.52376	2.20406	0.696106	1.8167	0.956497	-0.0901043	-0.0547484	-0.108374	0	0.017852	0	0	-0.0860217	0.0447737	-0.211581	0.0315358	0.0762005	0	0	0.0710355	-0.0134305	0.0318022	-0.129284	-0.132409	-0.172319	0.434251	1.5708	0	0	-0.128363	-0.142467	-0.147753	0.377638	1.3855	0	0
0.35	2.58567	1.52156	2.17821	0.697218	1.81657	0.956307	-0.0884806	-0.055833	-0.111829	0	0.0179304	0	0	-0.0812878	0.0452556	-0.210548	0.0354051	0.0785734	0	0	0.0719469	-0.0130877	0.0302723	-0.127611	-0.132978	-0.173674	0.431041	1.5708	0	0	-0.128208	-0.141708	-0.148215	0.379589	1.38272	0	0
0.36	2.61405	1.51895	2.1527	0.698391	1.81649	0.956087	-0.0858704	-0.0572323	-0.114313	0	0.0183039	0	0	-0.0761282	0.0460125	-0.209836	0.0392189	0.0808807	0	0	0.0730904	-0.0126804	0.029064	-0.126216	-0.133908	-0.175487	0.428638	1.5708	0	0	-0.128034	-0.141034	-0.149042	0.380945	1.37877	0	0
0.37	2.62968	1.5177	2.13854	0.699512	1.81613	0.955922	-0.0848485	-0.0583994	-0.115922	0	0.0190733	0	0	-0.0743944	0.0468298	-0.207765	0.0404775	0.0826051	0	0	0.073063	-0.0117324	0.0294839	-0.125826	-0.135039	-0.175593	0.427945	1.5708	0	0	-0.128111	-0.140152	-0.150681	0.382032	1.37435	0	0
0.38	2.6508	1.51585	2.11979	0.700788	1.81584	0.955684	-0.0824555	-0.0596953	-0.118188	0	0.0203602	0	0	-0.0708214	0.0475714	-0.206628	0.0435704	0.0853004	0	0	0.0735988	-0.0109598	0.0293554	-0.125595	-0.136071	-0.176663	0.427376	1.5708	0	0	-0.127892	-0.139246	-0.150311	0.3829	1.37123	0	0
0.39	2.67406	1.51319	2.10043	0.702285	1.81575	0.955377	-0.0784856	-0.0614142	-0.121556	0	0.0221099	0	0	-0.0647015	0.0484335	-0.206911	0.0492323	0.0889808	0	0	0.074502	-0.0105204	0.0276066	-0.125163	-0.137321	-0.178612	0.427098	1.5708	0	0	-0.127414	-0.138331	-0.148778	0.383691	1.36794	0	0
0.4	2.68945	1.51171	2.08869	0.703807	1.81549	0.955115	-0.0757078	-0.0628921	-0.124864	0	0.0241673	0	0	-0.0606917	0.0492757	-0.205422	0.0538055	0.0922157	0	0	0.0743355	-0.0097115	0.0258374	-0.124921	-0.138862	-0.179484	0.427513	1.5708	0	0	-0.127181	-0.137375	-0.147266	0.384282	1.36299	0	0
